<svg width="64" height="64" xmlns="http://www.w3.org/2000/svg">

 <g>
  <title>Layer 1</title>
  <rect id="svg_5" height="4.77471" width="1.47949" y="20.38736" x="15.79288" stroke="#000" fill="none"/>
  <path d="m16.53262,20.85811c0,0.06725 0.01545,0.1363 0,0.20175c-0.03455,0.14635 -0.04151,0.27412 -0.06725,0.33625c-0.03639,0.08787 -0.06725,0.20175 -0.06725,0.269c0,0.06725 -0.06725,0.20175 -0.06725,0.269c0,0.06725 0,0.1345 0,0.20175c0,0.06725 0,0.1345 0,0.20175c0,0.06725 -0.04755,0.1542 0,0.20175c0.04755,0.04755 0.06725,0.06725 0.06725,0.1345c0,0.06725 0,0.1345 0,0.20175c0,0.06725 0,0.1345 0,0.20175c0,0.06725 0,0.1345 0,0.20175c0,0.06725 0,0.1345 0,0.20175c0,0.06725 0,0.1345 0,0.20175c0,0.06725 0,0.1345 0,0.20175c0,0.06725 -0.04755,0.1542 0,0.20175c0.04755,0.04755 0.06725,0.06725 0.06725,0.1345l0,0.06725" id="svg_6" stroke="#000" fill="none"/>
  <path d="m16.53262,24.35508c0,0.06725 -0.0197,0.08695 -0.06725,0.1345c-0.04755,0.04755 -0.1542,0.04755 -0.20175,0c-0.04755,-0.04755 -0.03086,-0.11388 -0.06725,-0.20175c-0.02574,-0.06213 0.02574,-0.13962 0,-0.20175c-0.03639,-0.08787 -0.06725,-0.1345 -0.06725,-0.20175c0,-0.06725 0.06725,-0.06725 0.1345,-0.06725c0.06725,0 0.1345,0 0.20175,0c0.06725,0 0.16535,0.04663 0.20175,0.1345c0.05147,0.12426 0.03635,0.2726 0.06725,0.4035c0.03455,0.14635 0.06725,0.20175 0.06725,0.33625c0,0.06725 0,0.1345 0,0.20175c0,0.06725 -0.08695,0.1148 -0.1345,0.06725c-0.04755,-0.04755 -0.06725,-0.06725 -0.1345,-0.1345c-0.06725,-0.06725 -0.1542,-0.08694 -0.20175,-0.1345c-0.04755,-0.04755 -0.02574,-0.13962 0,-0.20175c0.0364,-0.08787 0.06725,-0.1345 0.1345,-0.20175l0,-0.06725l0.06725,-0.06725l0.06725,0" id="svg_7" stroke="#000" fill="none"/>
  <rect id="svg_8" height="1.41224" width="3.69872" y="17.89913" x="17.67586" stroke="#000" fill="none"/>
  <rect id="svg_9" height="1.54674" width="1.68124" y="20.18561" x="21.71083" stroke="#000" fill="none"/>
  <rect id="svg_10" height="1.47949" width="3.56422" y="22.13585" x="23.59382" stroke="#000" fill="none"/>
  <rect id="svg_11" height="1.47949" width="3.56422" y="19.78211" x="27.83054" stroke="#000" fill="none"/>
  <rect id="svg_12" height="1.41224" width="5.17821" y="17.83188" x="32.26901" stroke="#000" fill="none"/>
  <rect id="svg_13" height="1.81574" width="1.54674" y="19.78211" x="37.85071" stroke="#000" fill="none"/>
  <rect id="svg_14" height="3.63147" width="1.41224" y="21.9341" x="39.8682" stroke="#000" fill="none"/>
  <rect id="svg_15" height="7.39744" width="1.27774" y="25.96907" x="42.02018" stroke="#000" fill="none"/>
  <rect id="svg_16" height="1.68124" width="1.54674" y="34.17351" x="39.66645" stroke="#000" fill="none"/>
  <rect id="svg_17" height="1.34499" width="1.47949" y="32.02152" x="43.83592" stroke="#000" fill="none"/>
  <rect id="svg_18" height="3.76597" width="1.54674" y="33.90451" x="45.9879" stroke="#000" fill="none"/>
  <rect id="svg_19" height="1.47949" width="1.21049" y="38.20848" x="43.76867" stroke="#000" fill="none"/>
  <rect id="svg_20" height="1.54674" width="1.34499" y="40.36046" x="41.68394" stroke="#000" fill="none"/>
  <rect id="svg_21" height="1.34499" width="1.41224" y="42.24345" x="39.80095" stroke="#000" fill="none"/>
  <rect id="svg_22" height="1.34499" width="7.66644" y="44.32818" x="31.59651" stroke="#000" fill="none"/>
  <rect id="svg_23" height="2.01748" width="3.42972" y="45.94217" x="33.74849" stroke="#000" fill="none"/>
  <rect id="svg_24" height="3.83322" width="1.68124" y="40.09146" x="31.66376" stroke="#000" fill="none"/>
  <rect id="svg_25" height="1.68124" width="1.61399" y="37.93948" x="33.74849" stroke="#000" fill="none"/>
  <rect id="svg_26" height="1.61399" width="5.71621" y="40.09146" x="26.0148" stroke="#000" fill="none"/>
  <rect id="svg_27" height="1.74849" width="1.68124" y="38.07398" x="23.52657" stroke="#000" fill="none"/>
  <rect id="svg_28" height="7.26295" width="0.80699" y="30.20579" x="22.04708" stroke="#000" fill="none"/>
  <rect id="svg_29" height="0.87424" width="3.69872" y="32.42502" x="21.30734" stroke="#000" fill="none"/>
  <rect id="svg_30" height="7.26295" width="0.80699" y="28.3228" x="19.8951" stroke="#000" fill="none"/>
  <rect id="svg_31" height="1.41224" width="1.07599" y="26.30532" x="18.01211" stroke="#000" fill="none"/>
  <rect id="svg_32" height="0.47075" width="0.20175" y="25.29657" x="17.40687" stroke="#000" fill="none"/>
  <rect id="svg_33" height="1.47949" width="1.41224" y="24.08608" x="27.76329" stroke="#000" fill="none"/>
  <rect id="svg_34" height="1.14324" width="1.07599" y="22.2031" x="32.00001" stroke="#000" fill="none"/>
  <rect id="svg_35" height="1.00874" width="1.07599" y="28.39005" x="31.93276" stroke="#000" fill="none"/>
  <rect id="svg_36" height="1.07599" width="0.94149" y="30.20579" x="34.15199" stroke="#000" fill="none"/>
  <rect id="svg_37" height="1.07599" width="0.87424" y="26.03632" x="36.10223" stroke="#000" fill="none"/>
  <rect id="svg_38" height="1.00874" width="1.00874" y="28.25555" x="38.25421" stroke="#000" fill="none"/>
  <path d="m18.21386,18.43712c0.06725,0 0.1345,0 0.20175,0c0.06725,0 0.20175,0.06725 0.269,0.06725c0.06725,0 0.20175,0 0.33625,0c0.06725,0 0.1345,0 0.269,0c0.06725,0 0.06725,0.06725 0.1345,0.06725c0.06725,0 0.1542,-0.04755 0.20175,0c0.04755,0.04755 -0.06725,0.06725 -0.1345,0.06725c-0.33625,0 -0.47075,0 -0.60525,0c-0.1345,0 -0.269,0 -0.33625,0c-0.1345,0 -0.19663,0.02574 -0.1345,0c0.08787,-0.03639 0.14474,-0.01578 0.269,-0.06725c0.08787,-0.03639 0.1899,-0.09995 0.33625,-0.1345c0.06545,-0.01545 0.20175,0 0.269,0c0.06725,0 0.1542,0.04755 0.20175,0c0.04755,-0.04755 -0.06725,-0.06725 -0.1345,-0.06725c-0.1345,0 -0.20175,0.06725 -0.33625,0.06725c-0.06725,0 -0.20175,0.06725 -0.269,0.06725c-0.06725,0 -0.20175,-0.06725 -0.20175,0c0,0.06725 0.1345,0 0.20175,0c0.06725,0 0.1345,-0.06725 0.269,-0.06725c0.06725,0 0.20175,-0.06725 0.33625,-0.06725c0.1345,0 0.269,-0.06725 0.33625,-0.06725c0.06725,0 0.1148,-0.04755 0.06725,0c-0.04755,0.04755 -0.06725,0.06725 0,0.06725c0.06725,0 0.1345,0 0.20175,0c0.06725,0 0.08695,-0.0197 0.1345,-0.06725c0.04755,-0.04755 0.11388,-0.03086 0.20175,-0.06725c0.06213,-0.02574 0.1542,-0.04755 0.20175,0c0.04755,0.04755 0.08695,0.0197 0.1345,0.06725c0.04755,0.04755 0.0197,0.04755 0.06725,0c0.04755,-0.04755 0.06725,-0.06725 0.1345,-0.06725c0.06725,0 0.06725,0.06725 0.1345,0.06725l0,-0.06725l0,-0.06725l0,-0.06725" id="svg_39" stroke="#000" fill="none"/>
  <path d="m22.31608,20.79086c0.06725,0.06725 0.08695,0.08695 0.1345,0.1345c0.04755,0.04755 0.0197,0.1542 0.06725,0.20175c0.04755,0.04755 0.06725,0.06725 0.1345,0.06725c0.06725,0 0.01578,-0.07749 0.06725,-0.20175c0.0364,-0.08787 0.0197,-0.1542 0.06725,-0.20175c0.04755,-0.04755 0.06725,-0.06725 0.06725,-0.1345c0,-0.06725 0.06725,-0.06725 0.06725,-0.1345c0,-0.06725 0,-0.1345 0.06725,-0.1345c0.06725,0 0.1345,0 0.1345,0.06725c0,0.06725 0,0.1345 0.06725,0.1345c0.06725,0 0.06725,-0.06725 0.06725,-0.1345l0,-0.06725l0,0.06725" id="svg_40" stroke="#000" fill="none"/>
  <path d="m20.50034,18.57162c-0.06725,0 -0.1345,0 -0.20175,0c-0.06725,0 -0.1345,0 -0.20175,0l-0.06725,0" id="svg_41" stroke="#000" fill="none"/>
  <path d="m22.24883,20.79086c0,-0.06725 0,-0.1345 0,-0.20175c0,-0.06725 0,-0.1345 0,-0.20175l-0.06725,0l0.06725,0l0.06725,0" id="svg_42" stroke="#000" fill="none"/>
  <path d="m23.79557,22.53934c0.06725,0 0.1345,0 0.20175,0c0.06725,0 0.1345,0 0.20175,0c0.06725,0 0.1345,0 0.20175,0c0.06725,0 0.1345,0 0.20175,0c0.06725,0 0.1345,0 0.20175,0c0.06725,0 0.1345,0 0.20175,0c0.06725,0 0.1345,0 0.20175,0c0.06725,0 0.1345,0 0.20175,0c0.06725,0 0.1345,0 0.20175,0c0.06725,0 0.1345,0 0.20175,0c0.06725,0 0.1345,0 0.20175,0c0.06725,0 0.1345,0 0.20175,0c0.06725,0 0.1345,0 0.20175,0c0.06725,0 0.1345,0 0.20175,0c0.06725,0 0.13962,0.02574 0.20175,0c0.08787,-0.03639 0.1345,-0.06725 0.20175,-0.06725c0.06725,0 0,0 -0.06725,0c-0.06725,0 -0.1345,0 -0.20175,0c-0.06725,0 -0.08695,0.0197 -0.1345,0.06725c-0.04755,0.04755 -0.08695,0.0197 -0.1345,0.06725c-0.04755,0.04755 -0.06725,0.06725 -0.1345,0.06725c-0.06725,0 -0.1345,0 -0.20175,0c-0.06725,0 -0.1345,0.06725 -0.20175,0.06725c-0.1345,0 -0.20175,0 -0.33625,0c-0.06725,0 -0.18113,-0.03086 -0.269,-0.06725c-0.06213,-0.02574 -0.1345,0 -0.20175,0c-0.06725,0 -0.08695,-0.0197 -0.1345,-0.06725c-0.04755,-0.04755 -0.1345,0 -0.20175,0c-0.06725,0 -0.1345,0 -0.20175,0c-0.06725,0 -0.1345,0 -0.20175,0c-0.06725,0 -0.1345,0 -0.20175,0c-0.06725,0 -0.1345,0 -0.20175,0c-0.06725,0 -0.20175,-0.06725 -0.20175,0c0,0.06725 0.08695,0.0197 0.1345,0.06725c0.04755,0.04755 0.0197,0.08695 0.06725,0.1345c0.04755,0.04755 0.06725,0.06725 0.06725,0.1345c0,0.06725 0.06725,0.06725 0.1345,0.06725c0.06725,0 0.08695,-0.0197 0.1345,-0.06725c0.04755,-0.04755 0.1542,0.04755 0.20175,0c0.04755,-0.04755 0.08695,-0.0197 0.1345,-0.06725c0.04755,-0.04755 0.08695,-0.0197 0.1345,-0.06725c0.04755,-0.04755 0.06725,-0.06725 0.1345,-0.06725c0.06725,0 0.1345,0 0.20175,0c0.06725,0 0.1345,0 0.20175,0c0.06725,0 0.1345,0 0.20175,0c0.06725,0 0.1345,0 0.20175,0c0.06725,0 0.1345,0 0.20175,0c0.06725,0 0.1345,0 0.20175,0l0.06725,0l0.06725,0l0,0.06725" id="svg_43" stroke="#000" fill="none"/>
  <path d="m28.30128,24.82583c-0.06725,0 -0.11388,-0.03086 -0.20175,-0.06725c-0.06213,-0.02574 -0.09299,-0.13962 -0.06725,-0.20175c0.03639,-0.08787 0.1345,-0.06725 0.20175,-0.06725c0.06725,0 0.1542,0.0197 0.20175,0.06725c0.04755,0.04755 0,0.1345 0,0.20175c0,0.06725 0,0.1345 -0.06725,0.1345c-0.06725,0 -0.0197,-0.08695 -0.06725,-0.1345c-0.04755,-0.04755 -0.06725,-0.06725 -0.06725,-0.1345c0,-0.1345 -0.06725,-0.20175 -0.06725,-0.269c0,-0.06725 -0.02062,-0.16535 0.06725,-0.20175c0.06213,-0.02574 0.1345,0 0.20175,0c0.06725,0 0.1345,0 0.20175,0c0.06725,0 0.08695,0.0197 0.1345,0.06725c0.04755,0.04755 0.06725,0.1345 0.06725,0.20175c0,0.06725 0.06725,0.06725 0.06725,0.1345c0,0.06725 -0.0197,0.08695 -0.06725,0.1345c-0.04755,0.04755 -0.06725,0.06725 -0.1345,0.06725c-0.06725,0 -0.08695,-0.0197 -0.1345,-0.06725c-0.04755,-0.04755 -0.06725,-0.06725 -0.06725,-0.1345l0,-0.06725l0,-0.06725" id="svg_44" stroke="#000" fill="none"/>
  <path d="m32.47075,22.47209c0.06725,-0.06725 0.06725,0 0.06725,0.06725c0,0.06725 0,0 -0.06725,0c-0.06725,0 0,0.1345 0,0.20175c0,0.06725 0,0.1345 0,0.20175l0,0.06725" id="svg_45" stroke="#000" fill="none"/>
  <path d="m28.43578,20.38736c0.06725,0 0.1345,0 0.20175,0c0.06725,0 0.1345,0 0.20175,0c0.06725,0 0.1345,0 0.20175,0c0.06725,0 0.1345,0 0.20175,0c0.06725,0 0.1345,0 0.20175,0c0.06725,0 0.08695,0.0197 0.1345,0.06725c0.04755,0.04755 0.1345,0 0.20175,0c0.06725,0 0.1345,0 0.20175,0c0.06725,0 0.1345,0 0.20175,0c0.06725,0 0.1345,0 0.20175,0c0.06725,0 0.1345,0 0.20175,0c0.06725,0 0.1345,0 0.20175,0l0.06725,0l0.06725,0l0.06725,0" id="svg_46" stroke="#000" fill="none"/>
  <path d="m32.6725,18.36987c0.06725,0 0.06725,0.06725 0.1345,0.06725c0.06725,0 0.15419,-0.04755 0.20175,0c0.04755,0.04755 0.06725,0.06725 0.1345,0.06725c0.06725,0 0.1345,0 0.20175,0c0.06725,0 0.1345,0 0.20175,0c0.06725,0 0.15419,-0.04755 0.20175,0c0.04755,0.04755 0.06725,0.06725 0.20175,0.06725c0.06725,0 0.1345,0 0.20175,0c0.06725,0 0.1345,0 0.20175,0c0.06725,0 0.1345,0 0.20175,0c0.06725,0 0.1345,0 0.20175,0c0.06725,0 0.1345,0 0.20175,0c0.06725,0 0.1345,0 0.20175,0c0.06725,0 0.1345,0 0.20175,0c0.06725,0 0.13962,0.02574 0.20175,0c0.08786,-0.03639 0.1345,-0.06725 0.20175,-0.06725c0.06725,0 0.1345,0 0.20175,0c0.06725,0 0.1345,0 0.20175,0c0.06725,0 0.1345,0 0.20175,0l0.06725,0l0.06725,0l0.06725,0" id="svg_47" stroke="#000" fill="none"/>
  <path d="m38.38871,20.45461c0,0.06725 0.0197,0.08695 0.06725,0.1345c0.04755,0.04755 0.06725,0.06725 0.06725,0.1345c0,0.06725 0.0197,0.08695 0.06725,0.1345c0.04755,0.04755 0.08694,0.0197 0.1345,0.06725c0.04755,0.04755 0.0197,0.04755 0.06725,0c0.04755,-0.04755 0.06725,-0.1345 0.06725,-0.20175c0,-0.06725 -0.04755,-0.1542 0,-0.20175c0.04755,-0.04755 0.06725,-0.06725 0.06725,-0.1345c0,-0.06725 0,-0.1345 0,-0.20175c0,-0.06725 0,-0.1345 -0.06725,-0.1345l0,-0.06725" id="svg_48" stroke="#000" fill="none"/>
  <polyline stroke-linecap="round" id="svg_49" points="32.47075419872999,22.60659272968769 32.53800369799137,22.60659272968769 " stroke="#000" fill="none"/>
  <path d="m28.50303,20.38736c0,-0.06725 -0.06725,-0.06725 -0.06725,-0.1345l0,-0.06725l-0.06725,0" id="svg_50" stroke="#000" fill="none"/>
  <path d="m40.4062,35.04775c-0.06725,0 -0.08694,-0.0197 -0.1345,-0.06725c-0.04755,-0.04755 -0.06725,-0.06725 -0.06725,-0.1345c0,-0.06725 -0.06725,-0.06725 -0.06725,-0.1345c0,-0.06725 0,-0.1345 0,-0.20175c0,-0.06725 0.0197,-0.08694 0.06725,-0.1345c0.04755,-0.04755 0.1542,0.04755 0.20175,0c0.04755,-0.04755 0.06725,-0.06725 0.1345,-0.06725c0.06725,0 0.16535,0.04663 0.20175,0.1345c0.02573,0.06213 0,0.1345 -0.06725,0.1345c-0.06725,0 -0.1345,0 -0.20175,0c-0.06725,0 -0.1345,0 -0.20175,0c-0.06725,0 -0.1345,0 -0.20175,0c-0.06725,0 -0.08694,-0.0197 -0.1345,-0.06725c-0.04755,-0.04755 -0.1148,-0.08694 -0.06725,-0.1345c0.04755,-0.04755 0.08694,-0.0197 0.1345,-0.06725c0.04755,-0.04755 0.06725,-0.06725 0.1345,-0.06725c0.06725,0 0.1345,0 0.20175,0c0.06725,0 0.07237,0.04152 0.1345,0.06725c0.08786,0.0364 0.06725,0.1345 0.06725,0.20175c0,0.06725 -0.0197,0.08694 -0.06725,0.1345c-0.04755,0.04755 -0.1345,0 -0.20175,0c-0.06725,0 -0.1345,0 -0.1345,-0.06725c0,-0.06725 0.0197,-0.08694 0.06725,-0.1345c0.04755,-0.04755 0.1542,-0.04755 0.20175,0c0.04755,0.04755 0,0.1345 0,0.20175c0,0.06725 -0.0197,0.08694 -0.06725,0.1345c-0.04755,0.04755 -0.1345,0 -0.20175,0c-0.06725,0 -0.1345,0 -0.1345,-0.06725c0,-0.06725 0.0197,-0.08694 0.06725,-0.1345c0.04755,-0.04755 0.1542,-0.04755 0.20175,0c0.04755,0.04755 0.04152,0.07237 0.06725,0.1345c0.0364,0.08786 0.08694,0.08694 0.1345,0.1345c0.04755,0.04755 0.03085,0.11388 0.06725,0.20175c0.02573,0.06213 0,0.1345 -0.06725,0.1345c-0.06725,0 -0.1345,0 -0.20175,0c-0.06725,0 -0.1345,0 -0.1345,-0.06725c0,-0.06725 -0.04755,-0.15419 0,-0.20175c0.04755,-0.04755 0.1345,0 0.20175,0l-0.06725,0" id="svg_51" stroke="#000" fill="none"/>
  <path d="m44.71016,32.22327c-0.06725,0 -0.1345,0 -0.1345,-0.06725c0,-0.06725 0,-0.1345 0.06725,-0.1345c0.06725,0 0.08694,0.0197 0.1345,0.06725c0.04755,0.04755 0.06725,0.06725 0.06725,0.1345c0,0.06725 0.04755,0.15419 0,0.20175c-0.04755,0.04755 -0.1345,0 -0.20175,0c-0.06725,0 0.04755,0.0197 0,0.06725c-0.04755,0.04755 -0.1345,0 -0.20175,0c-0.06725,0 -0.1345,0 -0.20175,0c-0.06725,0 -0.1542,0.04755 -0.20175,0c-0.04755,-0.04755 0.06725,-0.06725 0.1345,-0.06725c0.06725,0 0.06725,0.06725 0.1345,0.06725c0.06725,0 0.13962,0.04151 0.20175,0.06725c0.08787,0.0364 0.1345,0.06725 0.1345,0.1345c0,0.06725 -0.06725,0.06725 -0.1345,0.06725c-0.06725,0 -0.1345,0 -0.20175,0c-0.06725,0 -0.13962,0.02573 -0.20175,0c-0.08787,-0.0364 0,-0.06725 0.06725,-0.06725c0.06725,0 0.1345,0 0.20175,0c0.06725,0 0.20175,0.06725 0.20175,0c0,-0.06725 -0.1345,0 -0.20175,0c-0.06725,0 -0.11388,0.03085 -0.20175,0.06725c-0.12426,0.05147 -0.20175,0 -0.269,0c-0.06725,0 -0.15419,0.04755 -0.20175,0c-0.04755,-0.04755 -0.06725,-0.06725 -0.06725,-0.1345c0,-0.06725 0.1345,0 0.1345,-0.06725c0,-0.06725 -0.08694,0.0197 -0.1345,0.06725c-0.04755,0.04755 -0.08694,0.0197 -0.1345,0.06725c-0.04755,0.04755 -0.1345,0 -0.20175,0c-0.06725,0 -0.15419,0.04755 -0.20175,0c-0.04755,-0.04755 -0.08694,-0.0197 -0.1345,-0.06725c-0.04755,-0.04755 -0.06725,-0.06725 -0.06725,-0.1345c0,-0.06725 0.0197,-0.08694 0.06725,-0.1345c0.04755,-0.04755 -0.04755,-0.15419 0,-0.20175c0.04755,-0.04755 0.06725,-0.06725 0.06725,-0.1345c0,-0.06725 0,-0.1345 0,-0.20175c0,-0.06725 0,-0.1345 0,-0.20175c0,-0.06725 0,-0.1345 0,-0.20175c0,-0.06725 0.04755,-0.1542 0,-0.20175c-0.04755,-0.04755 -0.06725,-0.06725 -0.06725,-0.1345c0,-0.06725 0,-0.1345 0,-0.20175c0,-0.06725 -0.0197,-0.08695 -0.06725,-0.1345c-0.04755,-0.04755 -0.08695,-0.01969 -0.1345,-0.06725c-0.04755,-0.04755 -0.06725,-0.1345 -0.06725,-0.20175c0,-0.06725 0,-0.1345 0,-0.20175c0,-0.06725 0,-0.1345 0,-0.20175c0,-0.06725 0.05312,-0.06198 0.1345,0.1345c0.05755,0.13893 0.1345,0.269 0.1345,0.33625c0,0.06725 0.06725,0.20175 0.06725,0.269c0,0.06725 0,0.1345 0,0.20175c0,0.06725 0,0.1345 0,0.20175c0,0.06725 0.02573,0.13962 0,0.20175c-0.0364,0.08787 -0.0197,0.1542 -0.06725,0.20175c-0.04755,0.04755 -0.06725,0.06725 -0.06725,0.1345c0,0.06725 -0.0197,0.08695 -0.06725,0.1345c-0.04755,0.04755 -0.06725,0.1345 -0.1345,0.1345c-0.06725,0 -0.08694,0.1148 -0.1345,0.06725c-0.04755,-0.04755 -0.06725,-0.06725 -0.06725,-0.1345c0,-0.06725 -0.04152,-0.13962 -0.06725,-0.20175c-0.0364,-0.08787 -0.08694,-0.08695 -0.1345,-0.1345c-0.04755,-0.04755 0,-0.1345 0,-0.20175c0,-0.06725 0,-0.1345 0,-0.20175c0,-0.06725 0,-0.1345 0,-0.20175c0,-0.06725 0,-0.1345 0,-0.20175c0,-0.06725 0.04755,-0.1542 0,-0.20175c-0.04755,-0.04755 -0.06725,-0.06725 -0.06725,-0.1345c0,-0.06725 0,-0.1345 0,-0.20175c0,-0.06725 0,-0.1345 0,-0.20175c0,-0.06725 0,-0.1345 0,-0.20175c0,-0.06725 0.06725,-0.1345 0.06725,-0.20175c0,-0.06725 0.06725,-0.06725 0.06725,-0.1345c0,-0.06725 0,-0.1345 0,-0.20175c0,-0.06725 0,-0.1345 0,-0.20175c0,-0.06725 0.03085,-0.11388 0.06725,-0.20175c0.02573,-0.06213 0,-0.1345 0,-0.20175c0,-0.06725 0.06725,-0.06725 0.06725,-0.1345c0,-0.06725 0,-0.1345 0,-0.20175c0,-0.1345 0,-0.20175 0,-0.269c0,-0.06725 -0.04755,-0.1148 0,-0.06725c0.04755,0.04755 0.07695,0.06282 0.1345,0.20175c0.08138,0.19647 0.06725,0.33625 0.1345,0.47075c0.06725,0.1345 0.09995,0.25714 0.1345,0.4035c0.0309,0.1309 -0.0309,0.20535 0,0.33625c0.03455,0.14635 0.06725,0.20175 0.06725,0.269c0,0.06725 0,0 0,-0.06725c0,-0.06725 -0.03635,-0.1381 -0.06725,-0.269c-0.03455,-0.14635 -0.06725,-0.269 -0.06725,-0.4035c0,-0.1345 0,-0.269 0,-0.33625c0,-0.06725 0,-0.1345 0,-0.20175c0,-0.06725 0,-0.1345 0,-0.20175c0,-0.06725 0.06213,-0.17601 0,-0.20175c-0.08787,-0.0364 -0.06725,0.1345 -0.06725,0.269c0,0.20175 -0.0327,0.3244 -0.06725,0.47075c-0.0309,0.1309 -0.0327,0.1899 -0.06725,0.33625c-0.01545,0.06545 -0.0197,0.18205 -0.06725,0.1345c-0.04755,-0.04755 -0.03085,-0.11388 -0.06725,-0.20175c-0.05147,-0.12426 -0.06725,-0.269 -0.06725,-0.33625c0,-0.1345 -0.06725,-0.33625 -0.06725,-0.47075c0,-0.1345 0,-0.269 0,-0.47075c0,-0.06725 0.06725,-0.20175 0,-0.20175c-0.06725,0 0,0.1345 0,0.20175c0,0.06725 0.03085,0.18113 0.06725,0.269c0.02573,0.06213 -0.06725,0.20175 0,0.20175c0.06725,0 0,-0.1345 0,-0.20175c0,-0.1345 0,-0.269 0,-0.47075c0,-0.1345 -0.03493,-0.33885 -0.06725,-0.538c-0.03407,-0.20992 -0.06725,-0.33625 -0.06725,-0.4035c0,-0.06725 0,-0.1345 0,-0.06725c0,0.06725 0,0.1345 0,0.20175c0,0.06725 0.03085,0.11388 0.06725,0.20175c0.02573,0.06213 -0.0309,0.1381 0,0.269c0.03455,0.14635 0.0518,0.20355 0.06725,0.269c0.03455,0.14635 0.0981,0.24838 0.1345,0.33625c0.02573,0.06213 -0.06725,0.20175 0,0.20175c0.06725,0 0,-0.1345 0,-0.20175c0,-0.1345 0,-0.20175 0,-0.33625c0,-0.1345 0,-0.269 0,-0.33625c0,-0.1345 0,-0.20175 0,-0.269c0,-0.06725 0,-0.1345 0,-0.06725c0,0.06725 0,0.1345 0,0.20175c0,0.1345 0,0.269 0.06725,0.269c0.06725,0 -0.02573,-0.13962 0,-0.20175c0.0364,-0.08787 0.06725,-0.1345 0.06725,-0.20175c0,-0.06725 0,-0.1345 0,-0.20175c0,-0.06725 0,0 0,0.06725c0,0.06725 -0.06725,0.20175 0,0.20175c0.06725,0 0,-0.1345 0,-0.20175c0,-0.06725 0.0197,-0.08695 0.06725,-0.1345c0.04755,-0.04755 0,-0.1345 0,-0.20175c0,-0.06725 0.06725,-0.20175 0,-0.20175c-0.06725,0 0.06725,0.06725 0.06725,0.1345c0,0.06725 0.09995,0.0554 0.1345,0.20175c0.01545,0.06545 0.0197,0.08695 0.06725,0.1345c0.04755,0.04755 0,0.1345 0,0.20175c0,0.06725 -0.06725,0.20175 0,0.20175c0.06725,0 -0.06725,-0.06725 -0.06725,-0.1345c0,-0.06725 -0.0518,-0.1363 -0.06725,-0.20175c-0.03455,-0.14635 -0.08695,-0.22144 -0.1345,-0.269c-0.0951,-0.0951 -0.0197,-0.2493 -0.06725,-0.20175c-0.04755,0.04755 -0.0197,0.08695 -0.06725,0.1345c-0.04755,0.04755 -0.06725,0.06725 -0.06725,0.1345l-0.06725,0l0,0.06725" id="svg_52" stroke="#000" fill="none"/>
  <path d="m36.57298,18.36987c0.06725,0 0.08694,0.0197 0.1345,0.06725c0.04755,0.04755 0.08694,0.0197 0.1345,0.06725c0.04755,0.04755 0.18205,-0.0197 0.1345,-0.06725c-0.04755,-0.04755 -0.1345,0 -0.20175,0c-0.06725,0 -0.06725,0.06725 -0.06725,0.1345c0,0.06725 0.08694,0.0197 0.1345,0.06725c0.04755,0.04755 0.06725,0.06725 0.1345,0.06725c0.06725,0 0.04152,-0.07237 0.06725,-0.1345c0.0364,-0.08787 0.03535,-0.05721 0,0c-0.07906,0.12792 -0.1345,0.1345 -0.06725,0.1345c0.06725,0 0.0197,-0.08695 0.06725,-0.1345c0.04755,-0.04755 0.1148,-0.08695 0.06725,-0.1345c-0.04755,-0.04755 -0.1345,0 -0.20175,0c-0.06725,0 -0.13962,0.04151 -0.20175,0.06725c-0.08786,0.03639 -0.1345,0.1345 -0.20175,0.1345l-0.06725,0.06725l0,0.06725" id="svg_53" stroke="#000" fill="none"/>
  <path d="m38.65771,20.52186c0,-0.06725 -0.04755,-0.1542 0,-0.20175c0.04755,-0.04755 0.0197,-0.08695 0.06725,-0.1345c0.04755,-0.04755 0.1345,-0.06725 0.1345,0c0,0.06725 0,0.1345 0,0.20175c0,0.06725 -0.04663,0.0981 -0.1345,0.1345c-0.06213,0.02574 -0.1345,0 -0.20175,0c-0.06725,0 -0.08694,-0.0197 -0.1345,-0.06725c-0.04755,-0.04755 -0.06725,-0.06725 -0.06725,-0.1345l0,-0.06725l0.06725,0l0.06725,0" id="svg_54" stroke="#000" fill="none"/>
  <path d="m28.77203,20.25286c0,0.06725 -0.06725,0.06725 -0.1345,0.06725c-0.06725,0 -0.1345,0 -0.20175,0c-0.06725,0 -0.06725,-0.06725 -0.1345,-0.06725c-0.06725,0 0,0 0.06725,0c0.06725,0 0.1345,0 0.20175,0l0.06725,0l0.06725,0l0.06725,0" id="svg_55" stroke="#000" fill="none"/>
  <path d="m18.75186,26.97781c-0.06725,0 -0.08695,-0.0197 -0.1345,-0.06725c-0.04755,-0.04755 -0.06725,-0.06725 -0.1345,-0.06725c-0.06725,0 -0.06725,-0.06725 -0.06725,-0.1345l-0.06725,0l0,-0.06725l0,-0.06725" id="svg_56" stroke="#000" fill="none"/>
  <path d="m24.46806,38.61197c-0.06725,0 -0.1542,0.04755 -0.20175,0c-0.04755,-0.04755 0,-0.1345 0,-0.20175c0,-0.06725 0.0197,-0.08694 0.06725,-0.1345c0.04755,-0.04755 0.08695,-0.0197 0.1345,-0.06725c0.04755,-0.04755 0.1542,-0.04755 0.20175,0c0.04755,0.04755 0.0197,0.08694 0.06725,0.1345c0.04755,0.04755 0.04755,0.0197 0,0.06725c-0.04755,0.04755 -0.06725,0.06725 -0.1345,0.06725c-0.06725,0 -0.06725,0.06725 -0.1345,0.06725c-0.06725,0 -0.1345,0 -0.20175,0c-0.06725,0 -0.1148,-0.08694 -0.06725,-0.1345c0.04755,-0.04755 0.13962,-0.02573 0.20175,0c0.08787,0.0364 0.08695,0.08694 0.1345,0.1345c0.04755,0.04755 0.1148,0.08694 0.06725,0.1345c-0.04755,0.04755 -0.1345,0 -0.20175,0c-0.06725,0 -0.08695,-0.0197 -0.1345,-0.06725c-0.04755,-0.04755 -0.04755,-0.1148 0,-0.06725c0.04755,0.04755 0.0197,0.08694 0.06725,0.1345c0.04755,0.04755 0.08695,0.0197 0.1345,0.06725c0.04755,0.04755 0,0.1345 -0.06725,0.1345c-0.06725,0 -0.06725,0.06725 -0.1345,0.06725c-0.06725,0 -0.1345,0 -0.20175,0c-0.06725,0 -0.1542,0.04755 -0.20175,0c-0.04755,-0.04755 0,-0.1345 0.06725,-0.1345c0.06725,0 0.1345,0 0.20175,0c0.06725,0 0.13962,-0.02573 0.20175,0c0.08787,0.0364 0.13962,0.04152 0.20175,0.06725c0.08787,0.0364 0.08694,0.08695 0.1345,0.1345c0.04755,0.04755 0.04755,0.0197 0,0.06725c-0.04755,0.04755 -0.08695,0.0197 -0.1345,0.06725c-0.04755,0.04755 -0.1345,0 -0.1345,-0.06725c0,-0.06725 0.06725,-0.06725 0.1345,-0.06725c0.06725,0 0,0 -0.06725,0c-0.06725,0 -0.1345,0 -0.20175,0l0,-0.06725l-0.06725,0l0,-0.06725" id="svg_57" stroke="#000" fill="none"/>
  <path d="m34.48824,38.67922c0.06725,-0.06725 0.18205,-0.15419 0.1345,-0.20175c-0.04755,-0.04755 -0.06725,-0.06725 -0.06725,-0.1345c0,-0.06725 0.08694,-0.0197 0.1345,-0.06725c0.04755,-0.04755 0.08694,-0.1148 0.1345,-0.06725c0.04755,0.04755 -0.04755,0.15419 0,0.20175c0.04755,0.04755 0.06725,0.06725 0.06725,0.1345c0,0.06725 -0.0197,0.08694 -0.06725,0.1345c-0.04755,0.04755 -0.06725,0.06725 -0.1345,0.06725c-0.06725,0 -0.08694,0.0197 -0.1345,0.06725c-0.04755,0.04755 -0.15419,0.04755 -0.20175,0c-0.04755,-0.04755 -0.0197,-0.08694 -0.06725,-0.1345c-0.04755,-0.04755 0.0197,-0.08694 0.06725,-0.1345c0.04755,-0.04755 0.1345,0 0.20175,0c0.06725,0 0.07237,0.04152 0.1345,0.06725c0.08786,0.0364 0.08694,0.08694 0.1345,0.1345c0.04755,0.04755 0.04755,0.0197 0,0.06725c-0.04755,0.04755 -0.06725,0.06725 -0.1345,0.06725c-0.06725,0 -0.08694,0.1148 -0.1345,0.06725c-0.04755,-0.04755 -0.04755,-0.15419 0,-0.20175c0.04755,-0.04755 0.06725,0.06725 0.06725,0.1345l0,0.06725" id="svg_58" stroke="#000" fill="none"/>
  <path d="m32.269,41.70545c0,-0.06725 0,0 0,0.06725c0,0.1345 0,0.20175 0,0.4035c0,0.1345 0,0.269 0,0.4035c0,0.06725 0,0.20175 0,0.269c0,0.06725 0,0 0,-0.06725c0,-0.06725 -0.0209,-0.1399 -0.06725,-0.33625c-0.03455,-0.14635 -0.05698,-0.33902 -0.1345,-0.60524c-0.05946,-0.20418 -0.06725,-0.47075 -0.06725,-0.60525c0,-0.06725 0,0 0,0.06725c0,0.06725 0.0327,0.12265 0.06725,0.269c0.01545,0.06545 0.06725,0.269 0.06725,0.47075c0,0.1345 0.06725,0.269 0.06725,0.47075c0,0.20175 0.01578,0.27924 0.06725,0.4035c0.0364,0.08786 0,0.20175 0.06725,0.20175c0.06725,0 0.05147,-0.14474 0,-0.269c-0.0364,-0.08787 -0.05648,-0.26987 -0.06725,-0.33625c-0.03407,-0.20992 -0.1345,-0.47075 -0.1345,-0.53799c0,-0.06725 0,0 0,0.06725c0,0.06725 0,0.1345 0,0.269c0,0.06725 0.0327,0.25714 0.06725,0.4035c0.04635,0.19635 0.0327,0.3244 0.06725,0.47075c0.01545,0.06545 0.03085,0.11388 0.06725,0.20175c0.02573,0.06213 0,0 0,-0.06725c0,-0.06725 0,-0.1345 0,-0.269c0,-0.1345 0,-0.33625 0,-0.47075c0,-0.1345 0,-0.20175 0,-0.269c0,-0.06725 0.06725,-0.06725 0.06725,0c0,0.06725 -0.0309,0.1381 0,0.269c0.03455,0.14635 0.06725,0.269 0.06725,0.4035c0,0.1345 0.06725,0.269 0.06725,0.33625c0,0.06725 0,0.1345 0,0.20175c0,0.06725 0,0 0,-0.06725c0,-0.06725 0,-0.269 0,-0.4035c0,-0.1345 0,-0.33625 0,-0.538c0,-0.20175 0,-0.4035 0,-0.47075c0,-0.06725 0.06725,-0.06725 0.06725,0c0,0.06725 0.06725,0.1345 0.06725,0.20175c0,0.06725 0.06725,0.20175 0.06725,0.269c0,0.06725 0.03085,0.18113 0.06725,0.269c0.02574,0.06213 0,0.20175 0,0.269c0,0.06725 0,0.1345 0.06725,0.1345c0.06725,0 0,-0.1345 0,-0.269c0,-0.1345 -0.0327,-0.25715 -0.06725,-0.4035c-0.0309,-0.1309 0.06725,-0.33625 0,-0.33625c-0.06725,0 0,0.1345 0,0.269c0,0.1345 -0.06725,0.20175 -0.06725,0.269c0,0.06725 0.04755,0.1148 0,0.06725c-0.04755,-0.04755 -0.06725,-0.06725 -0.06725,-0.20175c0,-0.06725 0,-0.1345 0,-0.269c0,-0.06725 0,-0.269 0,-0.4035c0,-0.06725 0,-0.33625 0,-0.4035c0,-0.1345 0.06725,-0.269 0,-0.269c-0.06725,0 0.03085,0.11388 0.06725,0.20175c0.02573,0.06213 0,0.1345 0,0.20175c0,0.06725 0,0.1345 0,0.06725c0,-0.06725 0,-0.1345 0,-0.269c0,-0.06725 0,-0.20175 0,-0.33625c0,-0.1345 0,-0.269 0,-0.4035c0,-0.06725 0.08694,-0.18205 0.1345,-0.1345c0.04755,0.04755 0,0.1345 0,0.20175c0,0.06725 0,0.1345 0,0.20175c0,0.06725 0.04755,0.15419 0,0.20175c-0.04755,0.04755 -0.06725,-0.06725 -0.06725,-0.1345c0,-0.20175 0,-0.269 0,-0.33625c0,-0.06725 -0.04663,-0.0364 -0.1345,0c-0.06213,0.02574 -0.06725,0.06725 -0.1345,0.06725c-0.06725,0 -0.1345,0 -0.20175,0c-0.06725,0 -0.1345,0 -0.20175,0c-0.1345,0 -0.20175,0 -0.269,0c-0.06725,0 0,0 0.06725,0c0.06725,0 0.1345,0 0.20175,0c0.06725,0 0.1345,0 0.20175,0c0.06725,0 0.20175,0.06725 0.20175,0c0,-0.06725 -0.1363,-0.01545 -0.20175,0c-0.14635,0.03455 -0.269,0.06725 -0.4035,0.06725c-0.1345,0 -0.269,0 -0.33625,0c-0.1345,0 -0.269,-0.06725 -0.269,0c0,0.06725 0.1345,0 0.20175,0c0.06725,0 0,0 -0.06725,0c-0.06725,0 -0.12633,-0.03318 -0.33625,-0.06725c-0.19914,-0.03232 -0.33625,0 -0.47075,0c-0.20175,0 -0.39165,-0.0327 -0.538,-0.06725c-0.1309,-0.0309 -0.269,0 -0.4035,0c-0.06725,0 0,0 0.06725,0c0.06725,0 0.18113,0.03085 0.269,0.06725c0.06213,0.02573 0.20175,0.06725 0.20175,0c0,-0.06725 -0.06725,0.06725 -0.1345,0.06725c-0.1345,0 -0.269,0 -0.4035,0c-0.1345,0 -0.33625,0 -0.47075,0c-0.20175,0 -0.32808,0.03318 -0.538,0.06725c-0.13276,0.02155 -0.20175,0 -0.33625,0c-0.06725,0 -0.06725,0.06725 0,0.06725c0.06725,0 0.11388,-0.03085 0.20175,-0.06725c0.06213,-0.02573 0.1345,0 0.20175,0c0.06725,0 0.20175,0 0.269,0c0.06725,0 0.1345,0 0.06725,0c-0.06725,0 -0.08695,-0.0197 -0.1345,-0.06725c-0.04755,-0.04755 -0.20175,0 -0.33625,0c-0.20175,0 -0.33625,0 -0.538,0c-0.20175,0 -0.33799,0.02155 -0.47075,0c-0.20992,-0.03407 -0.33625,-0.06725 -0.47075,-0.06725c-0.1345,0 -0.33625,-0.1345 -0.33625,0c0,0.06725 0.1345,0 0.20175,0c0.06725,0 0.1345,0 0.269,0c0.06725,0 0.1345,0 0.20175,0c0.06725,0 0.1345,0 0.06725,0c-0.06725,0 -0.1345,0 -0.20175,0c-0.1345,0 -0.20175,0 -0.33625,0c-0.06725,0 -0.20175,0 -0.269,0c-0.06725,0 0,0 0.06725,0c0.06725,0 0.06725,-0.06725 0.1345,-0.06725c0.06725,0 0,0 -0.06725,0c-0.06725,0 -0.1345,0 -0.20175,0c-0.06725,0 -0.08695,0.0197 -0.1345,0.06725c-0.04755,0.04755 -0.0197,0.08694 -0.06725,0.1345c-0.04755,0.04755 -0.08695,0.0197 -0.1345,0.06725c-0.04755,0.04755 -0.06725,0.1345 -0.06725,0.20175c0,0.06725 0.08695,0.1148 0.1345,0.06725c0.04755,-0.04755 0.08695,-0.0197 0.1345,-0.06725c0.04755,-0.04755 0.06725,-0.06725 0.06725,-0.1345l0.06725,0l0,-0.06725l0.06725,0" id="svg_59" stroke="#000" fill="none"/>
  <path d="m40.0027,42.71419c0.06725,0 0.1345,0 0.20175,0c0.06725,0 0.1542,-0.04755 0.20175,0c0.04755,0.04755 0,0.1345 -0.06725,0.1345c-0.06725,0 -0.1345,0 -0.1345,-0.06725c0,-0.06725 0,-0.1345 0,-0.20175c0,-0.06725 0.0197,-0.18205 0.06725,-0.1345c0.04755,0.04755 0.06725,0.06725 0.06725,0.1345c0,0.06725 0,0.1345 -0.06725,0.1345c-0.06725,0 -0.1345,0.06725 -0.1345,0c0,-0.06725 0.06725,-0.06725 0.06725,0c0,0.06725 0.06725,0.06725 0.1345,0.06725l0.06725,0" id="svg_60" stroke="#000" fill="none"/>
  <path d="m42.15468,41.2347c0,-0.06725 0.03085,-0.11388 0.06725,-0.20175c0.02573,-0.06213 0.0197,-0.08694 0.06725,-0.1345c0.04755,-0.04755 0.1345,0 0.20175,0c0.06725,0 0.06725,0.06725 0.06725,0.1345c0,0.06725 0.02573,0.13962 0,0.20175c-0.0364,0.08786 -0.15419,0.18205 -0.20175,0.1345c-0.04755,-0.04755 0,-0.1345 0.06725,-0.33625l0.06725,0" id="svg_61" stroke="#000" fill="none"/>
  <path d="m44.44117,38.94822c0,-0.06725 0.0197,-0.08694 0.06725,-0.1345c0.04755,-0.04755 0.03085,-0.11388 0.06725,-0.20175c0.02573,-0.06213 0,-0.1345 0,-0.20175c0,-0.06725 0,0 0,0.06725c0,0.06725 0,0.1345 0,0.20175c0,0.06725 0.02573,0.13962 0,0.20175c-0.0364,0.08786 -0.15419,0.08695 -0.20175,0.1345c-0.04755,0.04755 0,0 0,-0.06725c0,-0.06725 0,-0.1345 0,-0.20175c0,-0.06725 0,-0.1345 0,-0.06725l0,0.06725l0.06725,0" id="svg_62" stroke="#000" fill="none"/>
  <path d="m42.55818,40.89846c0,0.06725 0,0.1345 0,0.20175c0,0.06725 -0.06725,0.06725 -0.06725,0.1345l-0.06725,0" id="svg_63" stroke="#000" fill="none"/>
  <path d="m40.20444,42.57969c0.06725,0 0.08695,0.0197 0.1345,0.06725c0.04755,0.04755 0.1345,0 0.20175,0c0.06725,0 0.1345,0 0.20175,0l0.06725,0l-0.06725,0l-0.06725,0" id="svg_64" stroke="#000" fill="none"/>
  <path d="m34.62274,38.61197c0,0.06725 -0.0197,0.08694 -0.06725,0.1345c-0.04755,0.04755 -0.06725,0.06725 -0.1345,0.06725c-0.06725,0 -0.06725,0.06725 -0.1345,0.06725l0,0.06725l0,0.06725l0.06725,0" id="svg_65" stroke="#000" fill="none"/>
  <path d="m42.42368,40.96571c0,0.06725 0,0.1345 0,0.20175c0,0.06725 -0.0197,0.08694 -0.06725,0.1345c-0.04755,0.04755 0,0.1345 0,0.20175l-0.06725,0" id="svg_66" stroke="#000" fill="none"/>
  <path d="m46.59315,37.06524c0.06725,0 0.06725,-0.06725 0.06725,-0.1345c0,-0.06725 0,-0.1345 0,-0.20175c0,-0.06725 0.06725,-0.06725 0.06725,-0.1345c0,-0.06725 0,-0.1345 0,-0.20175c0,-0.06725 0,-0.1345 0,-0.20175c0,-0.06725 0.06725,-0.06725 0.06725,-0.1345c0,-0.06725 0,-0.1345 0,-0.20175c0,-0.06725 0,-0.1345 0,-0.20175c0,-0.06725 0,-0.1345 0,-0.20175c0,-0.06725 0,-0.1345 0,-0.20175c0,-0.06725 0,-0.1345 0,-0.20175c0,-0.06725 0.06725,-0.06725 0.06725,-0.1345c0,-0.06725 0,-0.1345 0,-0.20175c0,-0.06725 0,-0.1345 0,-0.20175c0,-0.06725 0.06725,-0.06725 0.06725,-0.1345l0,-0.06725l0,-0.06725l-0.06725,0" id="svg_67" stroke="#000" fill="none"/>
  <path d="m34.75724,47.08541c0,-0.06725 0,-0.1345 0,-0.20175c0,-0.06725 0,-0.1345 0,-0.20175c0,-0.06725 0,-0.1345 0,-0.20175c0,-0.06725 0,-0.1345 0,-0.20175c0,-0.06725 0,-0.20175 0,-0.33625c0,-0.06725 0.04152,-0.06213 0.06725,0c0.0364,0.08786 0.04152,0.13962 0.06725,0.20175c0.0364,0.08786 0.06725,0.1345 0.06725,0.20175c0,0.06725 0,0.1345 -0.06725,0.1345c-0.06725,0 -0.06725,-0.06725 -0.1345,-0.06725c-0.06725,0 -0.06725,0.06725 -0.06725,0.1345c0,0.06725 -0.0197,0.1542 -0.06725,0.20175c-0.04755,0.04755 -0.08694,0.0197 -0.1345,0.06725c-0.04755,0.04755 -0.0197,0.08694 -0.06725,0.1345c-0.04755,0.04755 -0.1148,0.08694 -0.06725,0.1345c0.04755,0.04755 0.08694,0.0197 0.1345,0.06725c0.04755,0.04755 0.08694,0.0197 0.1345,0.06725c0.04755,0.04755 0.0197,0.08694 0.06725,0.1345c0.04755,0.04755 0.08694,0.0197 0.1345,0.06725c0.04755,0.04755 0.1345,0 0.20175,0c0.06725,0 0.1345,0 0.20175,0c0.06725,0 0.11388,-0.0981 0.20175,-0.1345c0.06213,-0.02573 0.11388,-0.0981 0.20175,-0.1345c0.06213,-0.02573 0.1345,-0.06725 0.20175,-0.1345c0.06725,-0.06725 0.08694,-0.08694 0.1345,-0.1345c0.04755,-0.04755 0.0197,-0.08694 0.06725,-0.1345c0.04755,-0.04755 0,-0.1345 0,-0.20175c0,-0.06725 -0.0197,-0.08694 -0.06725,-0.1345c-0.04755,-0.04755 -0.0197,-0.08694 -0.06725,-0.1345c-0.04755,-0.04755 -0.08694,-0.1148 -0.1345,-0.06725c-0.04755,0.04755 -0.04663,0.0981 -0.1345,0.1345c-0.06213,0.02573 -0.1345,0.06725 -0.20175,0.1345c-0.06725,0.06725 -0.06725,0.1345 -0.06725,0.20175c0,0.06725 0,0.1345 0.06725,0.1345c0.06725,0 0.08694,0.0197 0.1345,0.06725c0.04755,0.04755 0.20175,0 0.269,0c0.06725,0 0.1345,0 0.20175,0c0.06725,0 0.1345,0 0.20175,0c0.06725,0 0.10876,-0.00512 0.1345,-0.06725c0.0364,-0.08787 0.1345,-0.06725 0.1345,-0.1345c0,-0.06725 0.04755,-0.1542 0,-0.20175c-0.04755,-0.04755 -0.1345,0 -0.20175,0c-0.06725,0 -0.08694,0.0197 -0.1345,0.06725c-0.04755,0.04755 -0.06725,0.1345 -0.06725,0.20175c0,0.06725 0.04663,0.0981 0.1345,0.1345c0.06213,0.02573 0.08694,-0.0197 0.1345,-0.06725c0.04755,-0.04755 0,0 0,0.06725c0,0.06725 -0.06725,0.06725 -0.06725,0.1345c0,0.06725 0.04755,0.15419 0,0.20175c-0.04755,0.04755 -0.13962,0.02573 -0.20175,0c-0.08786,-0.0364 -0.11388,-0.0981 -0.20175,-0.1345c-0.06213,-0.02573 -0.1345,-0.06725 -0.20175,-0.06725c-0.06725,0 -0.15419,-0.0197 -0.20175,-0.06725c-0.04755,-0.04755 -0.04152,-0.07237 -0.06725,-0.1345c-0.0364,-0.08786 -0.1345,-0.06725 -0.1345,-0.1345c0,-0.06725 -0.0197,-0.08695 -0.06725,-0.1345c-0.04755,-0.04755 -0.06725,-0.06725 -0.06725,-0.1345c0,-0.06725 0,-0.1345 0,-0.20175c0,-0.06725 0,-0.1345 0,-0.20175c0,-0.06725 -0.0197,-0.08694 -0.06725,-0.1345c-0.04755,-0.04755 -0.0197,-0.08694 -0.06725,-0.1345c-0.04755,-0.04755 -0.04152,-0.07237 -0.06725,-0.1345c-0.0364,-0.08786 -0.08694,-0.08694 -0.1345,-0.1345c-0.04755,-0.04755 -0.08694,-0.0197 -0.1345,-0.06725c-0.04755,-0.04755 -0.0197,-0.08695 -0.06725,-0.1345c-0.04755,-0.04755 -0.06725,-0.06725 -0.1345,-0.06725c-0.06725,0 -0.08694,-0.0197 -0.1345,-0.06725c-0.04755,-0.04755 -0.0197,-0.08694 -0.06725,-0.1345c-0.04755,-0.04755 -0.08694,-0.0197 -0.1345,-0.06725c-0.04755,-0.04755 -0.11388,-0.03085 -0.20175,-0.06725c-0.06213,-0.02574 -0.1345,0 -0.20175,0c-0.06725,0 -0.1345,0 -0.20175,0c-0.06725,0 -0.1345,0 -0.20175,0c-0.06725,0 -0.1345,0 -0.20175,0c-0.06725,0 -0.1345,0 -0.20175,0c-0.06725,0 -0.1345,0 -0.20175,0c-0.06725,0 -0.1345,0.06725 -0.20175,0.06725c-0.06725,0 -0.15419,-0.04755 -0.20175,0c-0.04755,0.04755 -0.08694,0.0197 -0.1345,0.06725c-0.04755,0.04755 0.06725,0.06725 0.20175,0.06725c0.06725,0 0.20175,0 0.33625,0c0.06725,0 0.20175,0 0.33625,0c0.06725,0 0.1345,0 0.20175,0c0.06725,0 0.1345,0 0.20175,0c0.06725,0 0.06725,-0.06725 0.1345,-0.06725c0.06725,0 0.08694,-0.0197 0.1345,-0.06725c0.04755,-0.04755 0.1345,0 0.20175,0c0.06725,0 0.1345,0 0.20175,0c0.06725,0 0.1345,0 0.20175,0c0.06725,0 0.1345,0 0.20175,0c0.06725,0 0.1345,0 0.20175,0c0.06725,0 0.1345,0 0.20175,0c0.06725,0 0.1345,0 0.20175,0c0.06725,0 0.1542,-0.04755 0.20175,0c0.04755,0.04755 0.06725,0.06725 0.1345,0.06725c0.06725,0 0.08694,0.0197 0.1345,0.06725c0.04755,0.04755 0.1345,0 0.20175,0c0.06725,0 0.1345,0 0.20175,0c0.06725,0 0.1345,0 0.20175,0c0.06725,0 0.1345,0 0.20175,0c0.06725,0 0.1345,0 0.20175,0c0.06725,0 0.08694,-0.0197 0.1345,-0.06725c0.04755,-0.04755 0.1345,0 0.20175,0c0.06725,0 0.1345,0 0.20175,0c0.06725,0 0.1345,0 0.20175,0c0.06725,0 0.1345,0 0.20175,0c0.06725,0 0.1345,0 0.20175,0c0.06725,0 0.1345,0 0.20175,0c0.06725,0 0.1345,0 0.20175,0c0.06725,0 0.1345,0 0.20175,0c0.06725,0 0.1345,0 0.20175,0l-0.06725,0" id="svg_68" stroke="#000" fill="none"/>
  <path d="m46.3914,36.12374c0.06725,0.06725 0.06725,0.20175 0.06725,0.269c0,0.06725 0,0.1345 0,0.20175c0,0.06725 0,0.1345 0,0.20175l0,0.06725l0,0.06725l0,0.06725" id="svg_69" stroke="#000" fill="none"/>
  <path d="m40.74244,24.82583c0,-0.06725 0,-0.1345 0,-0.20175c0,-0.06725 -0.04755,-0.1542 0,-0.20175c0.04755,-0.04755 0.06725,-0.06725 0.06725,-0.1345c0,-0.06725 0,-0.1345 0,-0.20175c0,-0.06725 0,-0.1345 0,-0.20175c0,-0.06725 0,-0.1345 0,-0.20175c0,-0.06725 -0.04755,-0.1542 0,-0.20175c0.04755,-0.04755 0.06725,-0.06725 0.06725,-0.1345c0,-0.06725 0,-0.1345 0,-0.20175c0,-0.06725 0,-0.1345 0,-0.20175c0,-0.06725 0,-0.1345 0,-0.20175c0,-0.06725 0,-0.1345 0,-0.20175c0,-0.06725 0,-0.1345 0,-0.20175c0,-0.06725 0.04755,-0.1542 0,-0.20175c-0.04755,-0.04755 -0.15419,-0.04755 -0.20175,0c-0.04755,0.04755 -0.06725,0.06725 -0.06725,0.1345c0,0.06725 0,0.1345 0,0.20175c0,0.06725 0,0.1345 0,0.20175c0,0.06725 0,0.1345 0,0.20175c0,0.06725 0,0.1345 0,0.20175c0,0.06725 0,0.1345 0,0.20175c0,0.06725 0,0.1345 0,0.20175c0,0.06725 0,0.1345 0,0.20175c0,0.06725 0.06725,0.06725 0.06725,0.1345c0,0.06725 0,0.1345 0,0.20175c0,0.06725 0,0.1345 0,0.20175l0,0.06725l0,0.06725l-0.06725,0" id="svg_70" stroke="#000" fill="none"/>
  <path d="m37.85072,44.93343c0.06725,0 0.06725,-0.06725 0.20175,-0.06725c0.1345,0 0.21711,0.00996 0.4035,-0.06725c0.08786,-0.0364 0.1345,-0.06725 0.269,-0.06725l0.06725,0l0.1345,-0.06725" id="svg_71" stroke="#000" fill="none"/>
  <path d="m47.13115,36.79624c-0.06725,0 -0.08694,0.0197 -0.1345,0.06725c-0.04755,0.04755 -0.08694,0.0197 -0.1345,0.06725c-0.04755,0.04755 -0.1345,0 -0.20175,0l-0.06725,0" id="svg_72" stroke="#000" fill="none"/>
  <path d="m40.80969,24.28783c-0.06725,0 -0.06725,0.06725 -0.06725,0.1345c0,0.06725 -0.06725,0.06725 -0.06725,0.1345c0,0.06725 -0.0197,0.08695 -0.06725,0.1345c-0.04755,0.04755 -0.06725,0.06725 -0.1345,0.06725l0,0.06725l-0.06725,0l0,0.06725" id="svg_73" stroke="#000" fill="none"/>
  <path d="m46.86215,36.12374c0,0.06725 -0.0197,0.08694 -0.06725,0.1345c-0.04755,0.04755 -0.0197,0.08694 -0.06725,0.1345c-0.04755,0.04755 -0.06725,0.06725 -0.06725,0.1345c0,0.06725 -0.0197,0.08694 -0.06725,0.1345c-0.04755,0.04755 -0.06725,0.06725 -0.06725,0.1345c0,0.06725 0,0.1345 0,0.20175l0,0.06725l0,0.06725" id="svg_74" stroke="#000" fill="none"/>
  <rect id="svg_75" height="4.10222" width="0.538" y="30.20579" x="20.70209" stroke="#000" fill="none"/>
  <rect id="svg_76" height="2.82448" width="2.42098" y="32.82852" x="20.36584" stroke="#000" fill="none"/>
  <path d="m21.44184,34.30801c0,0.06725 -0.06725,0.06725 -0.06725,0.1345c0,0.06725 0,0.1345 0,0.20175c0,0.06725 0,0.1345 0,0.20175l0,0.06725l0,0.06725l0.06725,0" id="svg_77" stroke="#000" fill="none"/>
  <path d="m21.44184,34.24076c-0.06725,0 -0.06725,0.06725 -0.06725,0.1345c0,0.06725 0,0.1345 0,0.20175c0,0.06725 -0.04755,0.15419 0,0.20175c0.04755,0.04755 0.0981,0.08787 0.1345,0c0.02574,-0.06213 0.06725,-0.06725 0.1345,-0.06725c0.06725,0 0.1345,-0.06725 0.20175,-0.06725c0.06725,0 0.1542,0.04755 0.20175,0c0.04755,-0.04755 0.06725,-0.06725 0,-0.06725c-0.06725,0 -0.1542,-0.04755 -0.20175,0c-0.04755,0.04755 -0.1345,0.06725 -0.20175,0.06725c-0.06725,0 -0.20175,-0.06725 -0.20175,0c0,0.06725 0.1542,-0.04755 0.20175,0c0.04755,0.04755 0.06725,0.06725 0.1345,0.06725c0.06725,0 0.08695,-0.0197 0.1345,-0.06725c0.04755,-0.04755 0.1345,0 0.20175,0c0.06725,0 0.18205,0.0197 0.1345,0.06725c-0.04755,0.04755 -0.1345,0 -0.20175,0c-0.06725,0 -0.1345,0 -0.1345,-0.06725l0,-0.06725l0.06725,-0.06725l0.06725,0" id="svg_78" stroke="#000" fill="none"/>
  <path d="m40.1372,24.28783c0,0.06725 0,0.1345 0,0.20175c0,0.06725 0.06725,0.1345 0.06725,0.20175c0,0.06725 0,0.1345 0,0.20175c0,0.06725 0.06725,0.1345 0.06725,0.20175c0,0.06725 0.0197,0.18205 0.06725,0.1345c0.04755,-0.04755 0.03085,-0.11388 0.06725,-0.20175c0.02573,-0.06213 0,-0.1345 0,-0.20175c0,-0.06725 0,-0.1345 0,-0.20175c0,-0.06725 0.0197,-0.18205 0.06725,-0.1345c0.04755,0.04755 0.03085,0.11388 0.06725,0.20175c0.02573,0.06213 0.0197,0.08695 0.06725,0.1345c0.04755,0.04755 0.06725,0.06725 0.06725,0c0,-0.06725 0,-0.1345 0,-0.20175c0,-0.1345 0,-0.20175 0,-0.1345c0,0.06725 0,0.20175 0,0.269c0,0.06725 0,0.1345 0,0.20175c0,0.06725 0,0.1345 0,0.06725l0,-0.06725l0,-0.06725l0,-0.06725" id="svg_79" stroke="#000" fill="none"/>
  <path d="m46.9294,36.72899c-0.06725,0 -0.1345,0 -0.1345,0.06725c0,0.06725 -0.03085,0.11388 -0.06725,0.20175c-0.02573,0.06213 0,0.1345 0,0.20175c0,0.06725 0,0.1345 0,0.06725c0,-0.06725 -0.0197,-0.08694 -0.06725,-0.1345c-0.04755,-0.04755 0,-0.1345 0,-0.20175c0,-0.06725 0,-0.1345 0,-0.20175c0,-0.06725 0,-0.1345 0,-0.20175c0,-0.06725 -0.0197,-0.04755 -0.06725,0c-0.14266,0.14266 -0.08694,0.22144 -0.1345,0.269c-0.04755,0.04755 -0.0197,0.08694 -0.06725,0.1345c-0.04755,0.04755 0,0.1345 0,0.20175c0,0.06725 0,0.1345 0,0.20175l0,-0.06725l0,-0.06725" id="svg_80" stroke="#000" fill="none"/>
 </g>
</svg>